<?xml version="1.0" standalone="no"?> <!DOCTYPE svg PUBLIC "-//W3C//DTD SVG 20010904//EN" "http://www.w3.org/TR/2001/REC-SVG-20010904/DTD/svg10.dtd"> <svg version="1.0" xmlns="http://www.w3.org/2000/svg" width="600.000000pt" height="600.000000pt" viewBox="0 0 600.000000 600.000000" preserveAspectRatio="xMidYMid meet"> <g transform="translate(0.000000,600.000000) scale(0.100000,-0.100000)" fill="#0f172a" stroke="none"> <path d="M0 3000 l0 -3000 3000 0 3000 0 0 3000 0 3000 -3000 0 -3000 0 0 -3000z m3330 2145 c412 -70 751 -227 1072 -494 364 -305 628 -756 722 -1236 44 -224 47 -567 7 -781 -92 -496 -329 -920 -694 -1245 -527 -468 -1251 -649 -1952 -487 -302 69 -640 238 -883 442 -102 84 -263 252 -341 355 -218 286 -360 622 -417 991 -27 171 -25 481 5 655 61 364 183 653 400 942 252 339 575 586 964 738 178 69 344 108 597 139 78 9 429 -3 520 -19z m2389 -4762 c12 -13 36 -30 54 -40 l32 -16 -30 -13 c-35 -14 -67 -46 -88 -88 l-15 -28 -15 28 c-19 37 -65 80 -97 92 -24 9 -24 9 13 27 38 18 77 61 91 100 7 18 9 17 21 -10 7 -16 22 -40 34 -52z"/> <path d="M2860 5109 c-499 -27 -963 -232 -1338 -593 -312 -300 -513 -663 -604 -1089 -26 -124 -30 -169 -35 -354 -6 -233 3 -336 44 -523 66 -301 203 -593 390 -835 71 -91 283 -306 295 -299 13 8 69 -46 61 -59 -3 -6 -1 -7 5 -3 6 3 43 -18 83 -49 251 -194 557 -325 889 -380 134 -23 410 -30 555 -16 757 77 1409 545 1715 1229 128 287 183 551 183 877 -1 518 -178 990 -512 1364 -69 78 -234 225 -314 280 -26 18 -45 36 -42 41 3 5 -27 31 -67 58 -385 259 -825 377 -1308 351z m395 -48 c28 -4 -40 -5 -150 -3 -110 2 -207 5 -215 6 -31 7 317 4 365 -3z m-397 -8 c-10 -2 -28 -2 -40 0 -13 2 -5 4 17 4 22 1 32 -1 23 -4z m-100 -10 c-10 -2 -26 -2 -35 0 -10 3 -2 5 17 5 19 0 27 -2 18 -5z m600 0 c-10 -2 -26 -2 -35 0 -10 3 -2 5 17 5 19 0 27 -2 18 -5z m-665 -10 c-7 -2 -19 -2 -25 0 -7 3 -2 5 12 5 14 0 19 -2 13 -5z m730 0 c-7 -2 -21 -2 -30 0 -10 3 -4 5 12 5 17 0 24 -2 18 -5z m-786 -9 c-3 -3 -12 -4 -19 -1 -8 3 -5 6 6 6 11 1 17 -2 13 -5z m929 -20 c97 -25 220 -66 299 -99 127 -54 373 -191 362 -202 -2 -2 -42 20 -88 48 -172 107 -376 193 -594 249 -60 16 -103 29 -94 29 9 1 61 -11 115 -25z m-973 9 c-7 -2 -19 -2 -25 0 -7 3 -2 5 12 5 14 0 19 -2 13 -5z m-46 -9 c-3 -3 -12 -4 -19 -1 -8 3 -5 6 6 6 11 1 17 -2 13 -5z m-52 -14 c-11 -5 -27 -9 -35 -9 -9 0 -8 4 5 9 11 5 27 9 35 9 9 0 8 -4 -5 -9z m-58 -17 c-4 -3 -10 -3 -14 0 -3 4 0 7 7 7 7 0 10 -3 7 -7z m-30 -10 c-4 -3 -10 -3 -14 0 -3 4 0 7 7 7 7 0 10 -3 7 -7z m-57 -18 c-46 -18 -64 -17 -25 0 17 8 37 14 45 14 8 0 -1 -7 -20 -14z m-83 -32 c-4 -3 -10 -3 -14 0 -3 4 0 7 7 7 7 0 10 -3 7 -7z m-37 -13 c-8 -5 -19 -10 -25 -10 -5 0 -3 5 5 10 8 5 20 10 25 10 6 0 3 -5 -5 -10z m-80 -34 c0 -2 -7 -7 -16 -10 -8 -3 -12 -2 -9 4 6 10 25 14 25 6z m-40 -20 c0 -2 -7 -7 -16 -10 -8 -3 -12 -2 -9 4 6 10 25 14 25 6z m-100 -50 c0 -3 -5 -8 -12 -12 -7 -4 -8 -3 -4 4 7 12 16 16 16 8z m-50 -30 c0 -3 -5 -8 -12 -12 -7 -4 -8 -3 -4 4 7 12 16 16 16 8z m-45 -32 c-26 -20 -55 -36 -55 -30 0 5 63 46 70 46 3 -1 -4 -8 -15 -16z m-65 -38 c0 -3 -15 -14 -32 -26 l-33 -22 30 26 c31 27 35 29 35 22z m-70 -49 c0 -2 -10 -12 -22 -23 l-23 -19 19 23 c18 21 26 27 26 19z m-50 -40 c0 -2 -10 -12 -22 -23 l-23 -19 19 23 c18 21 26 27 26 19z m-50 -40 c0 -2 -19 -21 -42 -42 l-43 -40 40 43 c36 39 45 47 45 39z m-170 -170 c0 -2 -19 -21 -42 -42 l-43 -40 40 43 c36 39 45 47 45 39z m2180 -530 l0 -492 -50 -50 -50 -49 0 162 c0 89 -3 162 -7 162 -4 0 -235 -62 -515 -137 l-508 -137 0 -612 c0 -678 2 -651 -67 -752 -42 -61 -133 -130 -213 -162 -82 -33 -208 -38 -283 -12 -76 27 -141 81 -175 145 -38 74 -38 178 0 260 72 154 249 267 418 267 75 0 168 -26 201 -56 19 -17 19 5 19 804 l0 821 38 11 c180 54 1152 319 1169 319 l22 1 1 -493z m-2260 440 c0 -2 -10 -12 -22 -23 l-23 -19 19 23 c18 21 26 27 26 19z m-50 -61 c0 -3 -5 -8 -12 -12 -7 -4 -8 -3 -4 4 7 12 16 16 16 8z m-30 -40 c0 -3 -5 -8 -12 -12 -7 -4 -8 -3 -4 4 7 12 16 16 16 8z m-20 -30 c0 -3 -5 -8 -12 -12 -7 -4 -8 -3 -4 4 7 12 16 16 16 8z m-30 -40 c0 -3 -5 -8 -12 -12 -7 -4 -8 -3 -4 4 7 12 16 16 16 8z m-30 -50 c0 -3 -5 -8 -12 -12 -7 -4 -8 -3 -4 4 7 12 16 16 16 8z m-20 -30 c0 -3 -5 -8 -12 -12 -7 -4 -8 -3 -4 4 7 12 16 16 16 8z m-30 -50 c0 -3 -5 -8 -12 -12 -7 -4 -8 -3 -4 4 7 12 16 16 16 8z m3109 -234 c7 -20 15 -74 18 -119 l6 -82 -40 -53 c-58 -78 -61 -88 -13 -43 l43 40 -7 -56 c-3 -31 -17 -96 -31 -145 -29 -101 -49 -126 -184 -216 -42 -27 -78 -52 -81 -55 -14 -13 111 42 153 67 26 16 47 25 47 20 0 -15 -65 -160 -124 -277 -49 -98 -64 -119 -114 -158 -31 -25 -97 -66 -146 -90 -48 -25 -79 -45 -69 -45 28 0 122 29 166 52 22 11 41 17 44 15 6 -7 -42 -100 -92 -178 -101 -156 -204 -252 -386 -355 -98 -57 -97 -60 15 -44 38 6 71 8 73 6 5 -5 -66 -27 -147 -47 l-45 -11 49 -19 c66 -25 81 -42 21 -23 -27 7 -66 14 -88 14 l-41 0 26 -27 c23 -25 48 -65 48 -76 0 -2 -22 18 -49 44 -26 27 -53 49 -59 49 -12 0 -53 -122 -78 -230 -13 -55 -84 -194 -84 -165 0 34 36 208 62 304 30 110 30 114 13 127 -11 8 -46 14 -84 15 -80 1 -55 17 28 18 l54 1 -42 45 c-52 57 -52 66 -1 25 23 -18 43 -31 45 -28 2 2 -6 37 -17 78 -18 60 -22 103 -22 220 -1 165 14 232 84 370 65 127 66 127 73 18 8 -124 25 -172 26 -73 1 39 7 111 15 161 17 112 25 126 237 387 15 18 15 16 8 -39 -5 -33 -6 -79 -2 -104 l7 -45 7 52 c4 28 14 84 23 125 16 71 20 76 106 167 49 52 91 93 94 90 2 -2 -2 -29 -10 -59 -24 -93 -15 -112 15 -30 44 121 58 141 226 313 l160 164 26 -28 c14 -16 31 -46 38 -67z m-3272 -109 c-4 -3 -7 0 -7 7 0 7 3 10 7 7 3 -4 3 -10 0 -14z m-10 -30 c-4 -3 -7 0 -7 7 0 7 3 10 7 7 3 -4 3 -10 0 -14z m-20 -60 c-4 -3 -7 0 -7 7 0 7 3 10 7 7 3 -4 3 -10 0 -14z m-10 -30 c-4 -3 -7 0 -7 7 0 7 3 10 7 7 3 -4 3 -10 0 -14z m-20 -70 c-4 -3 -7 0 -7 7 0 7 3 10 7 7 3 -4 3 -10 0 -14z m-10 -40 c-4 -3 -7 0 -7 7 0 7 3 10 7 7 3 -4 3 -10 0 -14z m-10 -50 c-4 -3 -7 0 -7 7 0 7 3 10 7 7 3 -4 3 -10 0 -14z m-10 -45 c-3 -8 -6 -5 -6 6 -1 11 2 17 5 13 3 -3 4 -12 1 -19z m-10 -60 c-3 -8 -6 -5 -6 6 -1 11 2 17 5 13 3 -3 4 -12 1 -19z m-10 -75 c-4 -3 -7 0 -7 7 0 7 3 10 7 7 3 -4 3 -10 0 -14z m-10 -105 c-3 -8 -6 -5 -6 6 -1 11 2 17 5 13 3 -3 4 -12 1 -19z m0 -305 c-3 -10 -5 -4 -5 12 0 17 2 24 5 18 2 -7 2 -21 0 -30z m10 -95 c-3 -8 -6 -5 -6 6 -1 11 2 17 5 13 3 -3 4 -12 1 -19z m2229 -59 c-37 -111 -49 -200 -43 -308 3 -53 9 -107 12 -121 l7 -25 -26 28 -25 28 -7 -26 c-8 -31 1 -80 20 -117 8 -16 10 -28 5 -28 -27 0 -111 54 -146 94 -102 116 -79 308 52 440 43 43 163 121 173 112 1 -2 -8 -37 -22 -77z m-2219 -11 c-3 -8 -6 -5 -6 6 -1 11 2 17 5 13 3 -3 4 -12 1 -19z m10 -60 c-3 -8 -6 -5 -6 6 -1 11 2 17 5 13 3 -3 4 -12 1 -19z m10 -55 c-4 -3 -7 0 -7 7 0 7 3 10 7 7 3 -4 3 -10 0 -14z m10 -40 c-4 -3 -7 0 -7 7 0 7 3 10 7 7 3 -4 3 -10 0 -14z m10 -40 c-4 -3 -7 0 -7 7 0 7 3 10 7 7 3 -4 3 -10 0 -14z m10 -40 c-4 -3 -7 0 -7 7 0 7 3 10 7 7 3 -4 3 -10 0 -14z m22 -63 c0 -9 -4 -8 -9 5 -5 11 -9 27 -9 35 0 9 4 8 9 -5 5 -11 9 -27 9 -35z m8 -37 c-4 -3 -7 0 -7 7 0 7 3 10 7 7 3 -4 3 -10 0 -14z m10 -30 c-4 -3 -7 0 -7 7 0 7 3 10 7 7 3 -4 3 -10 0 -14z m23 -48 c0 -5 -5 -3 -10 5 -5 8 -10 20 -10 25 0 6 5 3 10 -5 5 -8 10 -19 10 -25z m76 -170 c86 -181 200 -343 379 -535 73 -79 77 -84 21 -30 -87 84 -215 238 -289 348 -57 85 -169 303 -181 352 l-6 25 12 -25 c6 -14 35 -74 64 -135z"/> <path d="M3275 3899 c-331 -90 -502 -137 -627 -169 l-88 -23 0 -54 c0 -29 1 -53 3 -53 3 0 117 30 672 180 77 20 188 50 247 66 l108 29 0 53 c0 35 -4 52 -12 51 -7 -1 -143 -37 -303 -80z"/> <path d="M3968 3263 c-318 -429 -628 -965 -603 -1044 7 -20 8 -20 26 -3 11 10 57 94 102 188 112 231 280 516 551 939 20 31 34 57 32 57 -3 0 -52 -62 -108 -137z"/> <path d="M4255 4690 c3 -5 8 -10 11 -10 3 0 2 5 -1 10 -3 6 -8 10 -11 10 -3 0 -2 -4 1 -10z"/> </g> </svg>